# xmcd
#
# Track frame offsets: 
#        150
#        17040
#        33307
#        53177
#        71250
#        88857
#        104190
#        122695
#        138975
#        159127
#        175852
#        189468
#        234908
#        262794
#
# Disc length: 4355 seconds
#
# Revision: 7
# Processed by: cddbd v1.5.2PL0 Copyright (c) Steve Scherf et al.
# Submitted via: ExactAudioCopyFreeDBPlugin 1.0
#
DISCID=b011010e
DTITLE=Sentidos Opuestos - Movimiento Perpetuo
DYEAR=2000
DGENRE=Latin
TTITLE0=Tu Loco Amor
TTITLE1=Esta Noche
TTITLE2=Hoy Que No Estas
TTITLE3=Eternamente
TTITLE4=Nada
TTITLE5=Promises
TTITLE6=Yo Por Ti
TTITLE7=Eclipse Total
TTITLE8=Asi Es Tu Amor
TTITLE9=Pero Por Favor
TTITLE10=Cuando Ella Me Amaba
TTITLE11=Tu Loco Amor (Extended Dance Dub)
TTITLE12=Tu Loco Amor (Lite Remix 3)
TTITLE13=Videos
EXTD=
EXTT0=
EXTT1=
EXTT2=
EXTT3=
EXTT4=
EXTT5=
EXTT6=
EXTT7=
EXTT8=
EXTT9=
EXTT10=
EXTT11=
EXTT12=
EXTT13=
PLAYORDER=
